<svg width="28" height="28" viewBox="0 0 28 28" fill="none" xmlns="http://www.w3.org/2000/svg">
<g clip-path="url(#clip0_1_117)">
<path d="M10.5 22.1667C4.66668 23.9167 4.66668 19.25 2.33334 18.6667M18.6667 25.6667V21.1517C18.7104 20.5954 18.6353 20.0361 18.4462 19.5111C18.2571 18.9861 17.9584 18.5074 17.57 18.1067C21.2333 17.6984 25.0833 16.31 25.0833 9.94003C25.083 8.31116 24.4565 6.74476 23.3333 5.56503C23.8652 4.13995 23.8276 2.56477 23.2283 1.1667C23.2283 1.1667 21.8517 0.758362 18.6667 2.89336C15.9927 2.16865 13.174 2.16865 10.5 2.89336C7.31501 0.758362 5.93834 1.1667 5.93834 1.1667C5.33912 2.56477 5.30151 4.13995 5.83334 5.56503C4.70183 6.75351 4.07462 8.33407 4.08334 9.97503C4.08334 16.2984 7.93334 17.6867 11.5967 18.1417C11.2128 18.5383 10.9168 19.0113 10.7279 19.5299C10.5389 20.0485 10.4613 20.6011 10.5 21.1517V25.6667" stroke="#30B0C7" stroke-width="4" stroke-linecap="round" stroke-linejoin="round"/>
</g>
<defs>
<clipPath id="clip0_1_117">
<rect width="28" height="28" fill="white"/>
</clipPath>
</defs>
</svg>
