<svg width="28" height="28" viewBox="0 0 28 28" fill="none" xmlns="http://www.w3.org/2000/svg">
<g clip-path="url(#clip0_1_101)">
<path d="M20.4167 7.58331H20.4283M8.16668 2.33331H19.8333C23.055 2.33331 25.6667 4.94499 25.6667 8.16665V19.8333C25.6667 23.055 23.055 25.6666 19.8333 25.6666H8.16668C4.94502 25.6666 2.33334 23.055 2.33334 19.8333V8.16665C2.33334 4.94499 4.94502 2.33331 8.16668 2.33331ZM18.6667 13.265C18.8107 14.2359 18.6448 15.2276 18.1927 16.0988C17.7406 16.9701 17.0253 17.6766 16.1486 18.1179C15.2718 18.5592 14.2782 18.7128 13.3091 18.5569C12.34 18.401 11.4447 17.9434 10.7507 17.2493C10.0566 16.5553 9.59903 15.66 9.44309 14.6909C9.28715 13.7218 9.44075 12.7282 9.88206 11.8514C10.3234 10.9746 11.0299 10.2593 11.9012 9.80726C12.7724 9.35518 13.7641 9.18933 14.735 9.33331C15.7254 9.48018 16.6423 9.94169 17.3503 10.6497C18.0583 11.3577 18.5198 12.2746 18.6667 13.265Z" stroke="#30B0C7" stroke-width="4" stroke-linecap="round" stroke-linejoin="round"/>
</g>
<defs>
<clipPath id="clip0_1_101">
<rect width="28" height="28" fill="white"/>
</clipPath>
</defs>
</svg>
